P3
36 12
255
0   0   0 0   0   0 0   0   0 0   0   0 0   0   0 0   0   0 0   0   0 0   0   0 0   0   0 0   0   0 0   0   0 0   0   0 0   0   0 0   0   0 0   0   0 255 255 255 255 255 255 255 255 255 255 255 255 255 255 255 255 255 255 0   0   0 0   0   0 0   0   0 0   0   0 0   0   0 0   0   0 0   0   0 0   0   0 0   0   0 0   0   0 0   0   0 0   0   0 0   0   0 0   0   0 0   0   0
0   0   0 255 255 255 0   0   0 255 255 255 0   255 0 0   255 0 0   255 0 0   255 0 0   255 0 0   255 0 0   255 0 0   255 0 0   255 0 0   255 0 0   0   0 255 255 255 255 255 255 255 255 255 255 255 255 255 255 255 255 255 255 0   0   0 255 255 255 255 255 255 255 255 255 255 255 255 255 255 255 255 255 255 255 255 255 255 255 255 255 255 255 255 255 255 0   0   255 255 255 255 255 255 255 0   0   0
0   0   0 255 255 255 0   0   0 255 255 255 0   255 0 255 255 255 0   0   0 0   0   0 0   0   0 0   0   0 0   0   0 0   0   0 255 255 255 0   255 0 0   0   0 255 255 255 255 255 255 255 255 255 255 255 255 255 255 255 255 255 255 0   0   0 0   0   0 0   0   0 0   0   0 0   0   0 0   0   0 0   0   0 0   0   0 0   0   0 0   0   0 0   0   0 0   0   0 255 255 255 255 255 255 0   0   0
0   0   0 255 255 255 0   0   0 255 255 255 0   255 0 255 255 255 255 255 255 255 255 255 255 255 255 255 255 255 255 255 255 0   0   0 255 255 255 0   255 0 0   0   0 255 255 255 255 255 255 255 255 255 255 255 255 255 255 255 255 255 255 0   0   0 255 255 255 255 255 255 255 255 255 255 0   255 0   0   0 255 255 255 255 255 255 255 255 255 255 255 255 255 255 255 0   0   0 255 255 255 255 255 255 0   0   0
0   0   0 255 255 255 0   0   0 255 255 255 0   255 0 0   255 0 0   255 0 0   255 0 0   255 0 0   255 0 0   255 0 0   0   0 255 255 255 0   255 0 0   0   0 255 255 255 255 255 255 255 255 255 255 255 255 255 255 255 255 255 255 0   0   0 0   255 0 0   255 0 0   255 0 0   255 0 255 0   255 255 255 255 255 255 255 255 255 255 255 255 255 255 255 255 0   0   0 255 255 255 255 255 255 0   0   0
0   0   0 255 255 255 0   0   0 0   0   0 0   0   0 0   0   0 0   0   0 0   0   0 0   0   0 255 255 255 0   255 0 0   0   0 255 255 255 0   255 0 0   0   0 255 255 255 255 255 255 255 255 255 255 255 255 255 255 255 255 255 255 0   0   0 0   255 0 255 255 255 255 255 255 255 0   255 0   0   0 255 255 255 255 255 255 255 255 255 255 255 255 255 255 255 0   0   0 255 255 255 255 255 255 0   0   0
0   0   0 255 255 255 0   0   0 255 255 255 255 0   255 255 255 255 255 255 255 255 165 0 0   0   0 255 255 255 0   255 0 0   0   0 255 255 255 0   255 0 0   0   0 255 255 255 255 255 255 255 255 255 255 255 255 255 255 255 255 255 255 0   0   0 0   255 0 0   0   0 255 255 255 255 255 255 255 255 255 255 255 255 255 255 255 0   0   0 255 255 255 255 255 255 255 255 255 255 255 255 255 255 255 0   0   0
0   0   0 255 255 255 0   0   0 255 0   255 0   255 0 0   255 0 0   255 0 0   255 0 0   0   0 255 255 255 0   255 0 0   0   0 0   255 255 0   255 255 0   255 255 255 255 255 255 255 255 255 255 255 255 255 255 255 255 255 255 255 255 0   0   0 0   255 0 0   0   0 255 255 255 255 255 255 255 255 255 255 255 255 255 255 255 0   0   0 255 255 255 255 255 255 255 255 255 255 255 255 255 255 255 0   0   0
0   0   0 255 255 255 0   0   0 255 255 255 0   255 0 255 255 255 255 255 255 0   255 0 0   0   0 255 255 255 0   255 0 0   0   0 255 255 255 0   255 255 0   0   0 255 255 255 255 255 255 255 255 255 255 255 255 255 255 255 255 255 255 0   0   0 0   255 0 0   0   0 0   0   0 0   0   0 0   0   0 0   0   0 0   0   0 0   0   0 0   0   0 0   0   0 0   0   0 0   0   0 0   0   0 0   0   0
0   0   0 255 255 255 255 255 255 255 255 255 0   255 0 0   0   0 255 255 255 0   255 0 255 255 255 255 255 255 0   255 0 0   0   0 255 255 255 255 255 255 0   0   0 255 255 255 255 255 255 255 255 255 255 255 255 255 255 255 255 255 255 0   0   0 0   255 0 255 255 255 255 255 255 0   255 255 255 255 255 255 255 255 255 255 255 255 255 255 255 255 255 255 255 255 255 255 255 255 255 255 255 255 255 0   0   0
0   0   0 255 255 255 255 255 255 255 255 255 0   255 0 0   0   0 255 255 255 0   255 0 0   255 0 0   255 0 0   255 0 0   0   0 255 255 255 255 255 255 0   0   0 255 255 255 255 255 255 255 255 255 255 255 255 255 255 255 255 255 255 0   0   0 0   255 0 0   255 0 0   255 0 0   255 255 0   255 255 255 255 255 255 255 255 255 255 255 255 255 255 255 255 255 255 255 255 255 255 255 255 255 255 0   0   0
0   0   0 0   0   0 0   0   0 0   0   0 0   0   0 0   0   0 0   0   0 0   0   0 0   0   0 0   0   0 0   0   0 0   0   0 0   0   0 0   0   0 0   0   0 255 255 255 255 255 255 255 255 255 255 255 255 255 255 255 255 255 255 0   0   0 0   0   0 0   0   0 0   0   0 0   255 255 0   0   0 0   0   0 0   0   0 0   0   0 0   0   0 0   0   0 0   0   0 0   0   0 0   0   0 0   0   0